<?xml version="1.0" encoding="utf-8"?>
<!-- Generator: Adobe Illustrator 18.1.1, SVG Export Plug-In . SVG Version: 6.00 Build 0)  -->
<!DOCTYPE svg PUBLIC "-//W3C//DTD SVG 1.1//EN" "http://www.w3.org/Graphics/SVG/1.1/DTD/svg11.dtd">
<svg version="1.1" id="Layer_1" xmlns="http://www.w3.org/2000/svg" xmlns:xlink="http://www.w3.org/1999/xlink" x="0px" y="0px"
	 width="32px" height="32px" viewBox="0 0 32 32" enable-background="new 0 0 32 32" xml:space="preserve">
<path fill="#444444" d="M32,15.7c0-2.1-1.7-3.8-3.8-3.8c-0.9,0-1.8,0.3-2.4,0.9c-2.3-1.5-5.3-2.4-8.5-2.5l1.7-5.3L23.5,6
	c0.1,1.7,1.5,3,3.2,3c1.8,0,3.2-1.4,3.2-3.2c0-1.8-1.4-3.2-3.2-3.2c-1.2,0-2.3,0.7-2.9,1.7L18.5,3c-0.4-0.1-0.9,0.2-1,0.6l-2.1,6.5
	c-3.4,0.1-6.7,1-9.2,2.5c-0.7-0.5-1.5-0.8-2.4-0.8c-2.1,0-3.8,1.7-3.8,3.8c0,1.3,0.7,2.5,1.7,3.2c0,0.3-0.1,0.6-0.1,0.9
	c0,2.7,1.5,5.1,4.3,6.9c2.7,1.8,6.2,2.7,10,2.7c3.8,0,7.3-1,10-2.7c2.8-1.8,4.3-4.3,4.3-6.9c0-0.3,0-0.6-0.1-0.8
	C31.3,18.3,32,17.1,32,15.7z M26.7,4.3c0.8,0,1.5,0.7,1.5,1.5c0,0.8-0.7,1.5-1.5,1.5s-1.5-0.7-1.5-1.5C25.2,5,25.9,4.3,26.7,4.3z
	 M9.1,18.1c0-1.2,1-2.2,2.2-2.2c1.2,0,2.2,1,2.2,2.2s-1,2.2-2.2,2.2C10.1,20.3,9.1,19.3,9.1,18.1z M21.3,24.5
	c-1.1,1.1-2.8,1.7-5.3,1.7c0,0,0,0,0,0c0,0,0,0,0,0c-2.4,0-4.1-0.5-5.3-1.7c-0.3-0.3-0.3-0.9,0-1.2c0.3-0.3,0.9-0.3,1.2,0
	c0.8,0.8,2.1,1.1,4,1.1c0,0,0,0,0,0c0,0,0,0,0,0c1.9,0,3.2-0.4,4-1.1c0.3-0.3,0.9-0.3,1.2,0C21.6,23.6,21.6,24.1,21.3,24.5z
	 M20.8,20.3c-1.2,0-2.2-1-2.2-2.2s1-2.2,2.2-2.2c1.2,0,2.2,1,2.2,2.2S22,20.3,20.8,20.3z"/>
</svg>
