<svg width="1792" height="1792" xmlns="http://www.w3.org/2000/svg">

 <g>
  <title>background</title>
  <rect fill="none" id="canvas_background" height="402" width="582" y="-1" x="-1"/>
 </g>
 <g>
  <title>Layer 1</title>
  <path fill="#ffffff" id="svg_1" d="m1408,1088q0,26 -19,45l-448,448q-19,19 -45,19t-45,-19l-448,-448q-19,-19 -19,-45t19,-45t45,-19l896,0q26,0 45,19t19,45zm0,-384q0,26 -19,45t-45,19l-896,0q-26,0 -45,-19t-19,-45t19,-45l448,-448q19,-19 45,-19t45,19l448,448q19,19 19,45z"/>
 </g>
</svg>