<svg width="1792" height="1792" xmlns="http://www.w3.org/2000/svg">

 <g>
  <title>background</title>
  <rect fill="none" id="canvas_background" height="402" width="582" y="-1" x="-1"/>
 </g>
 <g>
  <title>Layer 1</title>
  <path fill="#ffffff" id="svg_1" d="m736,1440q0,12 -10,24l-319,319q-10,9 -23,9q-12,0 -23,-9l-320,-320q-15,-16 -7,-35q8,-20 30,-20l192,0l0,-1376q0,-14 9,-23t23,-9l192,0q14,0 23,9t9,23l0,1376l192,0q14,0 23,9t9,23zm1056,128l0,192q0,14 -9,23t-23,9l-832,0q-14,0 -23,-9t-9,-23l0,-192q0,-14 9,-23t23,-9l832,0q14,0 23,9t9,23zm-192,-512l0,192q0,14 -9,23t-23,9l-640,0q-14,0 -23,-9t-9,-23l0,-192q0,-14 9,-23t23,-9l640,0q14,0 23,9t9,23zm-192,-512l0,192q0,14 -9,23t-23,9l-448,0q-14,0 -23,-9t-9,-23l0,-192q0,-14 9,-23t23,-9l448,0q14,0 23,9t9,23zm-192,-512l0,192q0,14 -9,23t-23,9l-256,0q-14,0 -23,-9t-9,-23l0,-192q0,-14 9,-23t23,-9l256,0q14,0 23,9t9,23z"/>
 </g>
</svg>