<svg width="65" height="64" xmlns="http://www.w3.org/2000/svg">

 <g>
  <title>background</title>
  <rect fill="none" id="canvas_background" height="66" width="67" y="-1" x="-1"/>
 </g>
 <g>
  <title>Layer 1</title>
  <path fill="#facc20" id="svg_6" d="m24,24c-4.4,4.4 -4.4,11.6 0,16c4.4,4.4 11.6,4.4 16,0l-16,-16c0,0 0,0 0,0z" class="st17"/>
  <path fill="#f7a90b" id="svg_7" d="m24,24l16,16c0,0 0,0 0,0c4.4,-4.4 4.4,-11.6 0,-16c-4.4,-4.4 -11.6,-4.4 -16,0z" class="st19"/>
  <circle fill="#fdef34" id="svg_9" r="8.3" cy="32" cx="32" class="st18"/>
  <path fill="#dba92c" id="svg_11" d="m36,33.1c-0.2,-0.4 -0.7,-1.7 -3.4,-2.2l0,-3.3c0.7,0.2 1.1,0.7 1.3,1.3c0.2,0.6 0.5,0.8 1,0.8c0.3,0 2,-0.5 0.2,-2.6c-0.3,-0.4 -0.8,-0.9 -2.5,-1.1l0,-1.3l-1,0l0,1.3c-3.1,0.3 -3.4,2.4 -3.4,3.3c0,2.7 2.7,3.2 3.4,3.4l0,3.7c-1.3,-0.3 -1.6,-1.6 -1.7,-2.1c-0.2,-0.6 -0.7,-0.6 -1,-0.6c-0.8,0 -1,0.8 -1,1c0,0.4 0.2,1.9 2.1,2.9c0.4,0.2 1,0.4 1.6,0.4l0,1.3l1,0l0,-1.3c0.8,-0.1 1.4,-0.3 2,-0.6c1.5,-0.9 2,-2.6 1.4,-4.3zm-4.4,-2.5c-0.8,-0.4 -1.4,-0.5 -1.4,-1.5c0,-0.4 0.1,-1.2 1.4,-1.5l0,3zm1,5.9l0,-3.5c1.7,0.5 1.7,1.2 1.7,1.7c0,0.4 -0.1,1.4 -1.7,1.8z" class="st58"/>
  <path opacity="0.3" fill="#ffffff" id="svg_13" d="m37.3,22l-15.3,15.3c-0.2,-0.3 -0.4,-0.7 -0.5,-1.1l14.7,-14.7c0.4,0.2 0.8,0.3 1.1,0.5z" class="st3"/>
  <path opacity="0.3" fill="#ffffff" id="svg_14" d="m40.4,24.4l-16,16c-0.1,-0.1 -0.3,-0.3 -0.4,-0.4c0,0 0,0 0,0c-0.5,-0.5 -1,-1.1 -1.4,-1.7l15.7,-15.7c0.6,0.4 1.2,0.9 1.7,1.4c0,0 0,0 0,0c0.2,0.2 0.3,0.3 0.4,0.4z" class="st3"/>
  <polygon fill="#ffffff" id="svg_15" points="40.1,24.5 38.2,23.9 40.1,23.3 40.8,21.3 41.4,23.3 43.3,23.9 41.4,24.5 40.8,26.4   " class="st3"/>
  <polygon fill="#ffffff" id="svg_16" points="38.5,21.4 37.3,21 38.5,20.6 38.9,19.5 39.2,20.6 40.4,21 39.2,21.4 38.9,22.5   " class="st3"/>
  <path fill="#909ca0" id="svg_19" d="m21.8,49.1c2.6,2.2 5.9,3.8 9.5,4.4c3.5,0.7 7.3,0.4 10.8,-0.8c2.9,-1 5.5,-2.5 7.8,-4.6l4,4l0,-12.2l-12.2,0l4.1,4.1c-1.5,1.8 -3.3,3.4 -5.5,4.5c-2.6,1.4 -5.6,2.1 -8.7,2c-3.1,-0.1 -6.2,-1 -8.9,-2.7c-2.7,-1.7 -5.1,-4.1 -6.8,-7c1.2,3.2 3.2,6.1 5.9,8.3z" class="st1"/>
  <path fill="#445f66" opacity="0.1" id="svg_20" d="m34.755039,51.9c8.4,0 15.7,-4.9 19.3,-11.9l-12.2,0l4.1,4.1c-1.5,1.8 -3.3,3.4 -5.5,4.5c-2.6,1.4 -5.6,2.1 -8.7,2c-3.1,-0.1 -6.2,-1 -8.9,-2.7c-2.7,-1.7 -5.1,-4.1 -6.8,-7c0.1,0.2 0.2,0.4 0.2,0.5c3.8,6.3 10.6,10.5 18.5,10.5z" class="st5"/>
  <path fill="#b37863" id="svg_23" d="m42.35504,13.81473c-2.6,-2.2 -5.9,-3.8 -9.5,-4.4c-3.5,-0.7 -7.3,-0.4 -10.8,0.8c-2.9,1 -5.5,2.5 -7.8,4.6l-4,-4l0,12.2l12.2,0l-4.1,-4.1c1.5,-1.8 3.3,-3.4 5.5,-4.5c2.6,-1.4 5.6,-2.1 8.7,-2c3.1,0.1 6.2,1 8.9,2.7c2.7,1.7 5.1,4.1 6.8,7c-1.2,-3.2 -3.2,-6.1 -5.9,-8.3z" class="st41"/>
  <path fill="#edba9f" opacity="0.1" id="svg_24" d="m29.244961,11.014729c-8.4,0 -15.7,4.9 -19.3,11.9l12.2,0l-4.1,-4.1c1.5,-1.8 3.3,-3.4 5.5,-4.5c2.6,-1.4 5.6,-2.1 8.7,-2c3.1,0.1 6.2,1 8.9,2.7c2.7,1.7 5.1,4.1 6.8,7c-0.1,-0.2 -0.2,-0.4 -0.2,-0.5c-3.8,-6.3 -10.6,-10.5 -18.5,-10.5z" class="st5"/>
 </g>
</svg>