<?xml version="1.0" encoding="utf-8"?>
<!-- Generator: Adobe Illustrator 18.1.1, SVG Export Plug-In . SVG Version: 6.00 Build 0)  -->
<!DOCTYPE svg PUBLIC "-//W3C//DTD SVG 1.1//EN" "http://www.w3.org/Graphics/SVG/1.1/DTD/svg11.dtd">
<svg version="1.1" id="Layer_1" xmlns="http://www.w3.org/2000/svg" xmlns:xlink="http://www.w3.org/1999/xlink" x="0px" y="0px"
	 width="32px" height="32px" viewBox="0 0 32 32" enable-background="new 0 0 32 32" xml:space="preserve">
<path fill="#444444" d="M0.1,32l2.3-8.2c-1.4-2.4-2.1-5.1-2.1-7.9C0.2,7.1,7.3,0,16.1,0c4.2,0,8.2,1.7,11.2,4.7c3,3,4.6,7,4.6,11.2
	c0,8.7-7.1,15.9-15.9,15.9h0h0c-2.7,0-5.3-0.7-7.6-1.9L0.1,32z M8.9,26.9l0.5,0.3c2,1.2,4.3,1.8,6.7,1.8h0c7.3,0,13.2-5.9,13.2-13.2
	c0-3.5-1.4-6.8-3.9-9.3s-5.8-3.9-9.3-3.9C8.8,2.7,2.9,8.6,2.9,15.9c0,2.5,0.7,4.9,2,7l0.3,0.5l-1.3,4.9L8.9,26.9z"/>
<path fill-rule="evenodd" clip-rule="evenodd" fill="#444444" d="M12.1,9.2c-0.3-0.8-0.6-0.7-0.9-0.7c-0.2,0-0.5,0-0.8,0
	c-0.3,0-0.7,0.1-1.1,0.5C9,9.4,8,10.4,8,12.3c0,2,1.4,3.8,1.6,4.1c0.2,0.3,2.8,4.3,6.8,6c0.9,0.4,1.7,0.7,2.3,0.8
	c0.9,0.3,1.8,0.3,2.5,0.2c0.8-0.1,2.3-1,2.7-1.9c0.3-0.9,0.3-1.7,0.2-1.9c-0.1-0.2-0.4-0.3-0.8-0.5C22.9,19,21,18,20.6,17.9
	c-0.4-0.1-0.6-0.2-0.9,0.2c-0.3,0.4-1,1.3-1.3,1.6c-0.2,0.3-0.5,0.3-0.9,0.1c-0.4-0.2-1.7-0.6-3.2-2c-1.2-1.1-2-2.3-2.2-2.7
	c-0.2-0.4,0-0.6,0.2-0.8c0.2-0.2,0.4-0.5,0.6-0.7c0.2-0.2,0.3-0.4,0.4-0.7c0.1-0.3,0.1-0.5,0-0.7C13.2,12,12.4,10,12.1,9.2z"/>
</svg>
